<svg width="113" height="60" viewBox="0 0 113 60" fill="none" xmlns="http://www.w3.org/2000/svg">
<g clip-path="url(#clip0_311_800)">
<path d="M73.1086 59.9074C79.8132 59.9074 85.2483 54.4723 85.2483 47.7678C85.2483 41.0633 79.8132 35.6282 73.1086 35.6282C66.4041 35.6282 60.969 41.0633 60.969 47.7678C60.969 54.4723 66.4041 59.9074 73.1086 59.9074Z" fill="#464646"/>
<path d="M100.487 59.9074C107.191 59.9074 112.626 54.4723 112.626 47.7678C112.626 41.0633 107.191 35.6282 100.487 35.6282C93.7823 35.6282 88.3472 41.0633 88.3472 47.7678C88.3472 54.4723 93.7823 59.9074 100.487 59.9074Z" fill="#464646"/>
<path d="M31.5531 0.997437C40.6863 0.997437 48.8649 5.05823 54.4004 11.47C43.9563 13.1798 33.0064 22.7334 26.8939 36.7467C23.4173 44.7115 22.0708 52.8402 22.6265 59.9929C10.3159 56.1886 1.375 44.7258 1.375 31.1684C1.375 14.5049 14.8825 0.997437 31.546 0.997437H31.5531Z" fill="#EED432"/>
<path d="M30.171 0C39.3042 0 47.4828 4.06079 53.0183 10.4726C42.5742 12.1824 31.6243 21.7359 25.5118 35.7492C22.0351 43.7141 20.6887 51.8428 21.2444 58.9955C8.93374 55.1912 0 43.7283 0 30.171C0 13.5075 13.5075 0 30.171 0Z" fill="#464646"/>
<path d="M35.678 39.9739H56.1672L35.678 55.5687L56.1672 55.469" stroke="#464646" stroke-width="7.1242" stroke-linecap="round" stroke-linejoin="round"/>
<path d="M75.8727 55.5047C79.52 55.5047 82.4768 52.5479 82.4768 48.9005C82.4768 45.2532 79.52 42.2964 75.8727 42.2964C72.2253 42.2964 69.2686 45.2532 69.2686 48.9005C69.2686 52.5479 72.2253 55.5047 75.8727 55.5047Z" fill="#C5D8A9"/>
<path d="M100.487 50.6032C104.134 50.6032 107.091 47.6464 107.091 43.999C107.091 40.3517 104.134 37.3949 100.487 37.3949C96.8396 37.3949 93.8828 40.3517 93.8828 43.999C93.8828 47.6464 96.8396 50.6032 100.487 50.6032Z" fill="#E5CD39"/>
<path d="M54.3933 26.1601C54.3933 26.8939 54.2152 27.5422 53.8518 28.0979C53.4885 28.6536 53.0254 29.1024 52.4484 29.4372C51.9497 29.7364 51.3869 29.9573 50.7742 30.114C50.1615 30.2707 49.4704 30.3491 48.701 30.3491C48.4089 30.3491 48.124 30.3491 47.8461 30.3349C47.5683 30.3206 47.4116 30.3206 47.3831 30.3206C47.3831 30.2992 47.3831 29.8219 47.3973 28.8744C47.4116 27.9269 47.4116 27.0435 47.4116 26.1957C47.4116 25.7469 47.4116 25.1769 47.4116 24.4716C47.4116 23.7664 47.3973 22.9186 47.3831 21.9141C47.4258 21.9141 47.6182 21.9141 47.953 21.9141C48.2878 21.9141 48.4731 21.9141 48.5016 21.9141C49.3636 21.9141 50.133 21.9924 50.8027 22.1492C51.4723 22.3059 52.0708 22.5481 52.598 22.883C53.2035 23.2677 53.6595 23.7379 53.9587 24.2793C54.2579 24.8207 54.4004 25.4548 54.4004 26.1672L54.3933 26.1601ZM52.2703 26.096C52.2703 25.5545 53.2106 25.12 52.9756 24.6711C52.7405 24.2223 52.37 23.8518 51.8713 23.5313C51.4011 23.232 50.881 23.0254 50.304 22.9115C49.7269 22.7975 49.214 22.7333 48.7438 22.7333H48.5514C48.4802 22.7333 48.7367 22.8117 48.758 23.0682C48.6797 23.9516 48.4089 23.9445 48.4089 24.3719C48.4089 24.7994 48.4089 25.1556 48.4089 25.412C48.4089 25.5973 48.4089 26.0247 48.4089 26.7015C48.4089 27.3783 48.6084 28.1192 48.9076 28.967C49.0287 29.4016 48.5301 29.5013 48.5728 29.5013H48.7295C49.271 29.5013 49.8124 29.4372 50.361 29.309C50.9095 29.1807 51.3655 29.0026 51.7431 28.7818C52.2204 28.4968 52.598 28.1406 52.8901 27.6989C53.1822 27.2572 52.2631 26.6873 52.2631 26.0888L52.2703 26.096Z" fill="#231815"/>
<path d="M62.0874 30.2922C62.0874 30.513 61.7739 30.2922 61.2539 30.2922C60.7338 30.2922 60.0926 30.2922 59.3303 30.2922C58.8031 30.2922 58.3116 30.2922 57.877 30.2922C57.5778 30.2922 57.3071 30.2922 57.072 30.2922C56.901 30.2922 56.7656 30.1568 56.7656 29.9787C56.7656 29.6937 56.7727 29.2734 56.7799 28.7177C56.7799 27.9127 56.787 27.0791 56.787 26.2171C56.787 25.7469 56.787 25.12 56.787 24.3434C56.787 23.6666 56.7799 22.9685 56.7656 22.2489C56.7656 22.0779 56.901 21.9355 57.072 21.9355C57.3071 21.9355 57.5707 21.9355 57.8699 21.9355C58.3116 21.9355 58.7747 21.9355 59.2448 21.9355C60.0428 21.9355 60.6911 21.9355 61.1898 21.9355C61.6884 21.9355 61.952 21.7431 62.0019 21.9355V22.8046C62.0019 23.0112 61.6956 22.8046 61.2182 22.7975C60.7409 22.7904 60.1354 22.7904 59.4158 22.7904C59.1024 22.7904 58.796 22.7904 58.4968 22.7904C58.1976 22.7904 57.9554 22.7904 57.7844 22.7904C57.7844 23.2606 57.7844 23.7308 57.7701 24.201C57.7559 24.6712 57.7559 25.1129 57.7559 25.5332C57.9411 25.5332 58.1691 25.5332 58.4256 25.5332C58.682 25.5332 58.91 25.5332 59.1095 25.5332C59.8433 25.5332 60.4987 25.5332 61.0758 25.5261C61.6528 25.5189 62.0019 25.4192 62.0019 25.5189V26.381C62.0019 26.5306 61.6243 26.381 60.9689 26.3738C60.3135 26.3667 59.715 26.3667 59.1736 26.3667C58.9741 26.3667 58.7319 26.3667 58.4541 26.3667C58.1762 26.3667 57.9411 26.3667 57.7559 26.3667C57.7559 27.1575 57.7559 27.7844 57.7559 28.2475C57.7559 28.7106 57.763 29.1024 57.7701 29.4087C58.0195 29.4087 58.3116 29.4159 58.6678 29.4159C59.024 29.4159 59.3945 29.4159 59.8005 29.4159C60.4203 29.4159 60.9475 29.4159 61.3679 29.4159C61.7882 29.4159 62.0803 29.0454 62.0803 29.4159V30.285L62.0874 30.2922Z" fill="#231815"/>
<path d="M77.6753 30.2708C77.6753 30.4916 77.3618 30.2708 76.8418 30.2708C76.3217 30.2708 75.6805 30.2708 74.9182 30.2708C74.391 30.2708 73.8995 30.2708 73.4649 30.2708C73.1657 30.2708 72.895 30.2708 72.6599 30.2708C72.4889 30.2708 72.3535 30.1354 72.3535 29.9573C72.3535 29.6724 72.3606 29.252 72.3678 28.6963C72.3678 27.8913 72.3749 27.0578 72.3749 26.1957C72.3749 25.7255 72.3749 25.0986 72.3749 24.3221C72.3749 23.6453 72.3678 22.9471 72.3535 22.2276C72.3535 22.0566 72.4889 21.9141 72.6599 21.9141C72.895 21.9141 73.1586 21.9141 73.4578 21.9141C73.8995 21.9141 74.3625 21.9141 74.8327 21.9141C75.6306 21.9141 76.2789 21.9141 76.7776 21.9141C77.2763 21.9141 77.5399 21.7218 77.5898 21.9141V22.7833C77.5898 22.9899 77.2835 22.7833 76.8061 22.7761C76.3288 22.769 75.7233 22.769 75.0037 22.769C74.6903 22.769 74.3839 22.769 74.0847 22.769C73.7855 22.769 73.5433 22.769 73.3723 22.769C73.3723 23.2392 73.3723 23.7094 73.358 24.1796C73.3438 24.6498 73.3438 25.0915 73.3438 25.5118C73.529 25.5118 73.757 25.5118 74.0135 25.5118C74.2699 25.5118 74.4979 25.5118 74.6974 25.5118C75.4312 25.5118 76.0866 25.5118 76.6637 25.5047C77.2407 25.4976 77.5898 25.3978 77.5898 25.4976V26.3596C77.5898 26.5092 77.2122 26.3596 76.5568 26.3525C75.9014 26.3454 75.3029 26.3454 74.7615 26.3454C74.562 26.3454 74.3198 26.3454 74.042 26.3454C73.7641 26.3454 73.529 26.3454 73.3438 26.3454C73.3438 27.1361 73.3438 27.7631 73.3438 28.2261C73.3438 28.6892 73.3509 29.081 73.358 29.3874C73.6074 29.3874 73.8995 29.3945 74.2557 29.3945C74.6119 29.3945 74.9823 29.3945 75.3884 29.3945C76.0082 29.3945 76.5354 29.3945 76.9557 29.3945C77.3761 29.3945 77.6682 29.0241 77.6682 29.3945V30.2637L77.6753 30.2708Z" fill="#231815"/>
<path d="M70.444 27.8414C70.444 28.2617 70.3372 28.6321 70.1234 28.967C69.9097 29.3018 69.5962 29.5725 69.1902 29.7863C68.8268 29.9715 68.4279 30.114 67.9933 30.1995C67.5587 30.285 67.06 30.3277 66.5043 30.3277C66.0911 30.3277 65.6637 30.3206 65.2291 30.3063C64.7945 30.2921 64.5024 30.6697 64.5024 30.2778C64.5167 29.4799 64.5238 28.7176 64.5309 28.0052C64.5381 27.2928 64.5309 26.616 64.5309 25.9677C64.5309 24.7423 64.5309 23.7663 64.5167 23.0539C64.5024 22.3415 64.5024 21.9639 64.5024 21.9354C64.5024 21.7715 64.7945 21.9211 65.1935 21.9069C65.5924 21.8926 65.9843 21.8784 66.369 21.8784C66.7964 21.8784 67.1954 21.9069 67.5587 21.9639C67.9221 22.0209 68.2284 22.0992 68.4777 22.199C68.8553 22.3486 69.1545 22.5623 69.3754 22.8473C69.5962 23.1323 69.7031 23.4742 69.7031 23.8803C69.7031 24.3078 69.5677 24.6925 69.297 25.0202C69.0263 25.355 68.7128 25.5759 68.3638 25.697V25.7611C68.6487 25.7896 68.9266 25.8537 69.1973 25.9677C69.468 26.0817 69.7031 26.2384 69.9097 26.4379C70.0878 26.616 70.2232 26.8155 70.3158 27.0292C70.4084 27.2429 70.4511 27.5136 70.4511 27.8271L70.444 27.8414ZM69.3825 27.8698C69.3825 27.6561 69.3469 27.4638 69.2685 27.2999C69.1902 27.1361 69.0833 26.9722 68.9337 26.8155C68.7912 26.673 68.5989 26.559 68.3495 26.4735C68.1002 26.388 67.8294 26.3453 67.5374 26.3453C67.3023 26.3453 67.117 26.3453 66.9674 26.3453C66.8178 26.3453 66.8107 26.5732 66.6824 26.3453L66.5827 25.5972C66.5827 25.0558 67.1669 25.5545 67.402 25.4904C67.6371 25.4262 67.8508 25.3265 68.0289 25.1983C68.207 25.07 68.3495 24.9133 68.4635 24.721C68.5775 24.5286 68.6345 24.3077 68.6345 24.0655C68.6345 23.8091 68.5704 23.5882 68.4492 23.403C68.3281 23.2177 68.15 23.0681 67.9363 22.9613C67.7511 22.8758 67.5302 22.8045 67.2595 22.7618C66.9959 22.7191 66.7109 22.6977 66.4046 22.6977C66.2122 22.6977 66.027 22.6977 65.8632 22.7048C65.6993 22.7119 65.5924 22.7119 65.5497 22.7119C65.5355 23.3246 65.5283 23.9658 65.5283 24.6497C65.5283 25.3336 65.5283 25.8323 65.5283 26.1387C65.5283 26.8582 65.5283 27.5778 65.5354 28.3044C65.5426 29.0311 65.5426 29.4158 65.5426 29.4657C65.6281 29.4657 65.7349 29.4728 65.8774 29.4799C66.0199 29.4799 66.1481 29.487 66.2835 29.487C66.7608 29.487 67.2096 29.4585 67.6157 29.4087C68.0218 29.3588 68.3709 29.2519 68.6559 29.0952C68.8909 28.967 69.069 28.796 69.1973 28.5894C69.3255 28.3828 69.3896 28.1334 69.3896 27.8556L69.3825 27.8698Z" fill="#231815"/>
<path d="M85.6755 24.7922C85.6755 25.4049 85.4761 25.9535 85.0842 26.445C84.6924 26.9366 84.1652 27.2714 83.5027 27.4496C83.2177 27.5279 82.9114 27.5778 82.5765 27.6134C82.2915 27.6419 81.9781 27.6562 81.6361 27.6633C81.5364 27.6633 81.4509 27.7416 81.4509 27.8485L81.4651 30.1354C81.4651 30.2351 81.3868 30.3206 81.2799 30.3206H80.6174C80.5176 30.3206 80.4321 30.2351 80.4321 30.1354C80.4321 29.8647 80.4393 29.4657 80.4464 28.9243C80.4535 28.2475 80.4606 27.2002 80.4606 25.7754C80.4606 25.3265 80.4606 24.7709 80.4606 24.1154C80.4606 23.46 80.4464 22.7333 80.4321 21.9283C80.4321 21.5365 80.7883 21.9283 80.9593 21.9283H81.3796C82.0992 21.9283 82.7119 21.971 83.2177 22.0637C83.7235 22.1563 84.151 22.313 84.5 22.5339C84.8776 22.769 85.1697 23.0824 85.3692 23.4671C85.5687 23.8518 85.6684 24.2935 85.6684 24.8065L85.6755 24.7922ZM84.614 24.7922C84.614 24.3648 84.5143 23.9943 84.3219 23.6951C84.1296 23.3959 83.8232 23.1537 83.4172 22.9756C83.1678 22.8687 82.8971 22.7974 82.605 22.769C82.3129 22.7405 82.0137 22.7262 81.7002 22.7262H81.4651C81.4651 22.769 81.4651 23.0824 81.4509 23.6666C81.4366 24.2508 81.4366 24.7067 81.4366 25.0416C81.4366 25.3479 81.4366 25.7184 81.4366 26.1387C81.4366 26.559 81.4366 26.8012 81.4366 26.8582H81.686C81.9638 26.8582 82.263 26.8369 82.5765 26.8012C82.89 26.7656 83.1607 26.6944 83.3887 26.5946C83.7805 26.4308 84.0797 26.1957 84.2863 25.8965C84.4929 25.5973 84.5998 25.2268 84.5998 24.7851L84.614 24.7922Z" fill="#231815"/>
<path d="M94.652 29.9715L93.676 30.4773C93.4409 30.6056 93.5264 30.1211 93.2771 29.5441C93.0277 28.967 92.6929 28.2261 92.2868 27.3213H88.5822C88.1405 28.2973 87.8057 29.0454 87.5635 29.5797C87.3212 30.114 87.3568 30.5913 87.1645 30.4773L86.3238 30.0214C85.9463 29.8005 86.8795 28.8459 87.6703 27.1503C88.4611 25.4548 89.2733 23.6737 90.121 21.8H90.9332C91.7667 23.6666 92.586 25.4833 93.391 27.2358C94.1961 28.9884 95.222 29.7222 94.652 29.9715ZM91.9306 26.5163C91.7097 26.0033 91.4746 25.4761 91.2324 24.9204C90.9902 24.3648 90.7266 23.7806 90.4559 23.175H90.4274C90.2208 23.6381 89.9643 24.2009 89.6651 24.8706C89.3659 25.5403 89.1237 26.0888 88.9313 26.5163H91.9235H91.9306Z" fill="#231815"/>
<path d="M103.401 21.9211C103.75 21.9211 103.386 23.3246 103.379 24.1724C103.372 25.0202 103.372 25.6257 103.372 25.9962C103.372 27.1788 103.372 28.1263 103.386 28.8245C103.386 29.2804 103.393 29.5939 103.401 29.772C103.401 29.8789 103.344 29.9715 103.251 30.0142L102.738 30.2636C102.638 30.3134 102.524 30.2778 102.46 30.1923C101.242 28.5466 100.102 27.0648 99.0406 25.7326C97.9434 24.3647 97.3094 23.5668 97.1384 23.3602H97.1241C97.1241 24.4859 97.1313 25.8608 97.1455 27.4923C97.1598 29.1237 97.5872 30.2992 97.174 30.3134H96.198C95.856 30.3134 96.2051 29.8361 96.2194 29.2021C96.2336 28.568 96.2336 27.6775 96.2336 26.5376C96.2336 26.0817 96.2336 25.4761 96.2336 24.7281C96.2336 23.98 96.2194 23.2462 96.2122 22.4412C96.2122 22.3771 96.2479 22.3201 96.3049 22.2916L97.0458 21.9425C97.1099 21.914 97.1883 21.9211 97.2381 21.9853C97.4519 22.2489 98.0645 23.0325 99.0833 24.322C100.287 25.8466 101.42 27.2643 102.489 28.5751H102.503C102.503 27.9268 102.496 26.844 102.474 25.3265C102.453 23.8091 101.997 21.9496 102.446 21.9425H103.422L103.401 21.9211Z" fill="#231815"/>
</g>
<defs>
<clipPath id="clip0_311_800">
<rect width="112.626" height="60" fill="white"/>
</clipPath>
</defs>
</svg>
